<?xml version="1.0" encoding="UTF-8"?>
<svg width="872px" height="319px" viewBox="0 0 872 319" xmlns="http://www.w3.org/2000/svg" xmlns:xlink="http://www.w3.org/1999/xlink" version="1.1">
 <!-- Generated by Pixelmator Pro 2.1.2 -->
 <g id="g10">
  <g id="g12">
   <g id="g14">
    <g id="g20">
     <path id="path22" d="M-0.475 31.568 L-0.475 1.464 C-0.475 0.622 0.209 -0.063 1.053 -0.063 L81.048 -0.063 C81.892 -0.063 82.576 0.622 82.576 1.464 L82.576 31.568 C82.576 32.412 81.892 33.096 81.048 33.096 L1.053 33.096 C0.209 33.096 -0.475 32.412 -0.475 31.568" fill="#cccbcb" fill-opacity="1" stroke="none"/>
    </g>
    <g id="g24">
     <path id="path26" d="M21.418 25.232 L53.315 16.173 111.558 221.263 79.661 230.321 Z" fill="#cccbcb" fill-opacity="1" stroke="none"/>
    </g>
    <path id="path28" d="M80.416 197.983 L122.448 197.983 122.448 231.143 80.416 231.143 Z" fill="#cccbcb" fill-opacity="1" stroke="none"/>
    <g id="g30">
     <path id="path32" d="M181.296 23.875 L149.398 14.816 90.542 222.069 122.439 231.128 Z" fill="#cccbcb" fill-opacity="1" stroke="none"/>
    </g>
    <g id="g34">
     <path id="path36" d="M120.304 31.581 L120.304 1.452 C120.304 0.615 120.981 -0.063 121.819 -0.063 L201.84 -0.063 C202.676 -0.063 203.355 0.615 203.355 1.452 L203.355 31.581 C203.355 32.417 202.676 33.096 201.84 33.096 L121.819 33.096 C120.981 33.096 120.304 32.417 120.304 31.581" fill="#cccbcb" fill-opacity="1" stroke="none"/>
    </g>
    <path id="path38" d="M394.896 0.204 L428.056 0.204 428.056 224.219 394.896 224.219 Z" fill="#cccbcb" fill-opacity="1" stroke="none"/>
    <g id="g40">
     <path id="path42" d="M394.896 229.893 L394.896 199.764 C394.896 198.927 395.575 198.249 396.411 198.249 L534.206 198.249 C535.043 198.249 535.722 198.927 535.722 199.764 L535.722 229.893 C535.722 230.731 535.043 231.409 534.206 231.409 L396.411 231.409 C395.575 231.409 394.896 230.731 394.896 229.893" fill="#cccbcb" fill-opacity="1" stroke="none"/>
    </g>
    <g id="g44">
     <path id="path46" d="M504.069 174.35 L534.213 174.35 C535.046 174.35 535.721 175.024 535.721 175.856 L535.721 229.902 C535.721 230.734 535.046 231.408 534.213 231.408 L504.069 231.408 C503.237 231.408 502.561 230.734 502.561 229.902 L502.561 175.856 C502.561 175.024 503.237 174.35 504.069 174.35" fill="#cccbcb" fill-opacity="1" stroke="none"/>
    </g>
    <g id="g48">
     <path id="path50" d="M469.604 144.196 L469.604 115.749 C469.604 114.912 470.284 114.232 471.121 114.232 L534.204 114.232 C535.041 114.232 535.721 114.912 535.721 115.749 L535.721 144.196 C535.721 145.033 535.041 145.713 534.204 145.713 L471.121 145.713 C470.284 145.713 469.604 145.033 469.604 144.196" fill="#cccbcb" fill-opacity="1" stroke="none"/>
    </g>
    <g id="g52">
     <path id="path54" d="M487.497 0.204 L517.627 0.204 C518.464 0.204 519.141 0.882 519.141 1.719 L519.141 130.87 C519.141 131.706 518.464 132.385 517.627 132.385 L487.497 132.385 C486.66 132.385 485.981 131.706 485.981 130.87 L485.981 1.719 C485.981 0.882 486.66 0.204 487.497 0.204" fill="#cccbcb" fill-opacity="1" stroke="none"/>
    </g>
    <g id="g56">
     <path id="path58" d="M675.417 1.71 L675.417 31.858 C675.417 32.688 674.742 33.363 673.911 33.363 L606.51 33.363 C605.678 33.363 605.003 32.688 605.003 31.858 L605.003 1.71 C605.003 0.878 605.678 0.204 606.51 0.204 L673.911 0.204 C674.742 0.204 675.417 0.878 675.417 1.71" fill="#cccbcb" fill-opacity="1" stroke="none"/>
    </g>
    <path id="path60" d="M656.791 148.965 L623.632 148.965 623.632 16.783 656.791 16.783 Z" fill="#cccbcb" fill-opacity="1" stroke="none"/>
    <g id="g62">
     <path id="path64" d="M872.282 200.035 L872.282 230.157 C872.282 230.995 871.602 231.674 870.762 231.674 L790.752 231.674 C789.913 231.674 789.232 230.995 789.232 230.157 L789.232 200.035 C789.232 199.197 789.913 198.515 790.752 198.515 L870.762 198.515 C871.602 198.515 872.282 199.197 872.282 200.035" fill="#cccbcb" fill-opacity="1" stroke="none"/>
    </g>
    <g id="g66">
     <path id="path68" d="M850.391 206.38 L818.492 215.439 759.944 9.271 791.843 0.214 Z" fill="#cccbcb" fill-opacity="1" stroke="none"/>
    </g>
    <g id="g70">
     <path id="path72" d="M691.023 208.095 L722.921 217.154 781.945 9.308 750.047 0.25 Z" fill="#cccbcb" fill-opacity="1" stroke="none"/>
    </g>
    <g id="g74">
     <path id="path76" d="M753.82 200.026 L753.82 230.165 C753.82 230.998 753.144 231.674 752.309 231.674 L672.28 231.674 C671.447 231.674 670.77 230.998 670.77 230.165 L670.77 200.026 C670.77 199.193 671.447 198.515 672.28 198.515 L752.309 198.515 C753.144 198.515 753.82 199.193 753.82 200.026" fill="#cccbcb" fill-opacity="1" stroke="none"/>
    </g>
    <path id="path78" d="M736.412 114.232 L811.412 114.232 811.412 145.712 736.412 145.712 Z" fill="#cccbcb" fill-opacity="1" stroke="none"/>
    <path id="path80" d="M750.068 0.204 L791.837 0.204 791.837 33.364 750.068 33.364 Z" fill="#cccbcb" fill-opacity="1" stroke="none"/>
    <g id="g82">
     <path id="path84" d="M513.009 0.204 L550.213 0.204 C558.314 0.204 582.129 4.318 584.242 33.364 586.397 62.993 592.069 167.117 592.709 181.721 593.604 202.104 605.03 199.494 623.632 200.26 L623.632 196.425 623.514 148.965 656.673 148.965 656.673 227.66 C656.673 229.73 654.994 231.409 652.925 231.409 L596.198 231.409 C596.198 231.409 562.77 235.536 560.573 198.516 558.485 163.344 556.581 134.282 555.824 115.149 555.194 99.248 552.95 65.093 552.404 56.333 551.856 47.574 552.712 31.47 535.41 31.47 520.828 31.47 510.252 31.15 510.252 31.15 Z" fill="#cccbcb" fill-opacity="1" stroke="none"/>
    </g>
    <g id="g86">
     <path id="path88" d="M560.573 198.516 C563.31 227.508 590.682 231.674 593.966 231.674 597.251 231.674 623.814 231.526 623.814 231.526 L623.631 200.26 608.701 200.26 C589.703 200.26 592.657 179.628 592.11 170.869 591.563 162.109 588.411 102.257 588.177 99.638 L556.193 119.226 C557.572 145.706 558.878 180.57 560.573 198.516" fill="#cccbcb" fill-opacity="1" stroke="none"/>
    </g>
    <g id="g90">
     <path id="path92" d="M243.904 312.112 C245.176 313.117 246.687 313.619 248.432 313.619 250.558 313.619 252.615 313.128 254.606 312.144 257.962 310.515 259.639 307.845 259.639 304.139 L259.639 299.28 C258.902 299.751 257.955 300.144 256.792 300.459 255.632 300.773 254.494 300.997 253.376 301.131 L249.727 301.6 C247.542 301.891 245.895 302.348 244.792 302.973 242.923 304.023 241.99 305.696 241.99 307.993 241.99 309.736 242.626 311.108 243.904 312.112 M256.619 295.797 C258.007 295.617 258.936 295.037 259.406 294.055 259.671 293.515 259.806 292.741 259.806 291.731 259.806 289.664 259.076 288.165 257.614 287.235 256.15 286.303 254.06 285.836 251.334 285.836 248.186 285.836 245.956 286.691 244.639 288.399 243.902 289.343 243.422 290.749 243.198 292.613 L237.56 292.613 C237.672 288.172 239.107 285.083 241.868 283.344 244.627 281.604 247.828 280.736 251.468 280.736 255.692 280.736 259.122 281.54 261.758 283.151 264.372 284.761 265.679 287.267 265.679 290.668 L265.679 311.372 C265.679 311.999 265.807 312.501 266.066 312.881 266.32 313.26 266.864 313.451 267.692 313.451 267.96 313.451 268.262 313.435 268.599 313.4 268.932 313.367 269.29 313.316 269.674 313.249 L269.674 317.712 C268.734 317.98 268.015 318.148 267.526 318.215 267.031 318.283 266.359 318.316 265.514 318.316 263.43 318.316 261.922 317.579 260.982 316.101 260.49 315.317 260.144 314.211 259.939 312.781 258.71 314.392 256.942 315.788 254.642 316.973 252.334 318.159 249.796 318.752 247.023 318.752 243.69 318.752 240.967 317.741 238.852 315.719 236.739 313.697 235.682 311.167 235.682 308.128 235.682 304.8 236.72 302.22 238.804 300.387 240.88 298.556 243.61 297.428 246.991 297.003 Z" fill="#cccbcb" fill-opacity="1" stroke="none"/>
    </g>
    <g id="g94">
     <path id="path96" d="M289.831 281.608 L295.57 281.608 295.57 287.815 C296.041 286.608 297.191 285.138 299.027 283.403 300.859 281.671 302.974 280.803 305.369 280.803 305.481 280.803 305.669 280.814 305.937 280.836 306.206 280.859 306.666 280.904 307.314 280.97 L307.314 287.346 C306.957 287.279 306.627 287.235 306.323 287.211 306.023 287.19 305.691 287.179 305.337 287.179 302.291 287.179 299.955 288.158 298.322 290.114 296.689 292.072 295.871 294.324 295.871 296.875 L295.871 317.544 289.831 317.544 Z" fill="#cccbcb" fill-opacity="1" stroke="none"/>
    </g>
    <g id="g98">
     <path id="path100" d="M350.378 283.521 C352.916 285.49 354.444 288.878 354.958 293.688 L349.084 293.688 C348.726 291.473 347.912 289.634 346.636 288.166 345.361 286.704 343.313 285.97 340.494 285.97 336.648 285.97 333.896 287.848 332.244 291.601 331.169 294.036 330.633 297.042 330.633 300.616 330.633 304.213 331.39 307.24 332.914 309.698 334.433 312.156 336.825 313.382 340.092 313.382 342.597 313.382 344.585 312.621 346.048 311.094 347.516 309.568 348.525 307.48 349.084 304.826 L354.958 304.826 C354.286 309.593 352.609 313.077 349.925 315.278 347.24 317.484 343.805 318.586 339.625 318.586 334.928 318.586 331.18 316.869 328.382 313.436 325.586 310.001 324.19 305.712 324.19 300.566 324.19 294.258 325.721 289.348 328.786 285.836 331.85 282.325 335.752 280.568 340.494 280.568 344.544 280.568 347.838 281.552 350.378 283.521" fill="#cccbcb" fill-opacity="1" stroke="none"/>
    </g>
    <g id="g102">
     <path id="path104" d="M375.083 268.086 L381.123 268.086 381.123 286.473 C382.555 284.662 383.839 283.387 384.983 282.649 386.926 281.374 389.355 280.735 392.263 280.735 397.475 280.735 401.009 282.558 402.866 286.205 403.873 288.195 404.374 290.958 404.374 294.493 L404.374 317.545 398.169 317.545 398.169 294.895 C398.169 292.255 397.833 290.321 397.162 289.09 396.066 287.122 394.007 286.138 390.989 286.138 388.482 286.138 386.21 286.999 384.178 288.722 382.139 290.445 381.123 293.698 381.123 298.486 L381.123 317.545 375.083 317.545 Z" fill="#cccbcb" fill-opacity="1" stroke="none"/>
    </g>
    <path id="path106" d="M427.385 281.776 L433.527 281.776 433.527 317.544 427.385 317.544 Z M427.385 268.253 L433.527 268.253 433.527 275.099 427.385 275.099 Z" fill="#cccbcb" fill-opacity="1" stroke="none"/>
    <g id="g108">
     <path id="path110" d="M457.952 271.575 L464.058 271.575 464.058 281.608 469.795 281.608 469.795 286.541 464.058 286.541 464.058 309.994 C464.058 311.247 464.483 312.086 465.333 312.51 465.804 312.757 466.587 312.881 467.682 312.881 467.973 312.881 468.286 312.873 468.623 312.858 468.957 312.844 469.348 312.805 469.795 312.746 L469.795 317.545 C469.101 317.745 468.383 317.89 467.632 317.981 466.884 318.07 466.072 318.114 465.2 318.114 462.381 318.114 460.47 317.394 459.46 315.949 458.457 314.507 457.952 312.634 457.952 310.329 L457.952 286.541 453.089 286.541 453.089 281.608 457.952 281.608 Z" fill="#cccbcb" fill-opacity="1" stroke="none"/>
    </g>
    <g id="g112">
     <path id="path114" d="M514.281 296.707 C514.037 294.09 513.473 291.999 512.584 290.432 510.941 287.524 508.202 286.07 504.365 286.07 501.616 286.07 499.309 287.072 497.446 289.074 495.584 291.076 494.596 293.62 494.484 296.707 Z M512.117 282.598 C514.494 283.795 516.308 285.344 517.553 287.244 518.753 289.058 519.553 291.171 519.953 293.587 520.31 295.242 520.489 297.882 520.489 301.506 L494.35 301.506 C494.461 305.162 495.314 308.095 496.913 310.304 498.51 312.514 500.986 313.619 504.336 313.619 507.468 313.619 509.964 312.572 511.829 310.483 512.87 309.271 513.609 307.866 514.046 306.27 L519.984 306.27 C519.828 307.59 519.308 309.062 518.425 310.683 517.54 312.304 516.556 313.628 515.466 314.659 513.648 316.448 511.394 317.656 508.706 318.283 507.262 318.64 505.633 318.819 503.812 318.819 499.366 318.819 495.598 317.192 492.509 313.936 489.42 310.683 487.874 306.124 487.874 300.264 487.874 294.492 489.428 289.806 492.54 286.204 495.653 282.603 499.721 280.802 504.749 280.802 507.282 280.802 509.74 281.402 512.117 282.598" fill="#cccbcb" fill-opacity="1" stroke="none"/>
    </g>
    <g id="g116">
     <path id="path118" d="M565.966 283.521 C568.503 285.49 570.031 288.878 570.546 293.688 L564.671 293.688 C564.314 291.473 563.498 289.634 562.223 288.166 560.949 286.704 558.901 285.97 556.082 285.97 552.234 285.97 549.483 287.848 547.83 291.601 546.758 294.036 546.219 297.042 546.219 300.616 546.219 304.213 546.978 307.24 548.502 309.698 550.021 312.156 552.414 313.382 555.679 313.382 558.185 313.382 560.173 312.621 561.637 311.094 563.103 309.568 564.113 307.48 564.671 304.826 L570.546 304.826 C569.875 309.593 568.197 313.077 565.513 315.278 562.827 317.484 559.393 318.586 555.214 318.586 550.515 318.586 546.767 316.869 543.971 313.436 541.174 310.001 539.778 305.712 539.778 300.566 539.778 294.258 541.309 289.348 544.374 285.836 547.438 282.325 551.339 280.568 556.082 280.568 560.131 280.568 563.426 281.552 565.966 283.521" fill="#cccbcb" fill-opacity="1" stroke="none"/>
    </g>
    <g id="g120">
     <path id="path122" d="M591.883 271.575 L597.989 271.575 597.989 281.608 603.725 281.608 603.725 286.541 597.989 286.541 597.989 309.994 C597.989 311.247 598.413 312.086 599.264 312.51 599.735 312.757 600.517 312.881 601.613 312.881 601.904 312.881 602.217 312.873 602.552 312.858 602.888 312.844 603.279 312.805 603.725 312.746 L603.725 317.545 C603.032 317.745 602.312 317.89 601.563 317.981 600.813 318.07 600.003 318.114 599.131 318.114 596.311 318.114 594.401 317.394 593.391 315.949 592.388 314.507 591.883 312.634 591.883 310.329 L591.883 286.541 587.02 286.541 587.02 281.608 591.883 281.608 Z" fill="#cccbcb" fill-opacity="1" stroke="none"/>
    </g>
    <g id="g124">
     <path id="path126" d="M627.443 306.27 C627.625 308.284 628.137 309.827 628.983 310.901 630.533 312.847 633.231 313.819 637.065 313.819 639.347 313.819 641.357 313.332 643.092 312.36 644.827 311.387 645.696 309.883 645.696 307.848 645.696 306.303 645 305.13 643.613 304.324 642.728 303.832 640.976 303.261 638.361 302.614 L633.485 301.406 C630.373 300.644 628.076 299.795 626.599 298.854 623.964 297.222 622.643 294.963 622.643 292.076 622.643 288.677 623.883 285.926 626.365 283.823 628.849 281.72 632.185 280.668 636.381 280.668 641.868 280.668 645.824 282.256 648.247 285.433 649.768 287.447 650.503 289.616 650.458 291.943 L644.756 291.943 C644.641 290.585 644.149 289.351 643.277 288.239 641.859 286.659 639.399 285.87 635.892 285.87 633.556 285.87 631.789 286.303 630.587 287.173 629.387 288.042 628.785 289.191 628.785 290.616 628.785 292.177 629.575 293.426 631.153 294.361 632.064 294.919 633.409 295.41 635.187 295.835 L639.253 296.807 C643.677 297.859 646.639 298.878 648.144 299.86 650.493 301.406 651.665 303.832 651.665 307.141 651.665 310.342 650.439 313.104 647.981 315.429 645.524 317.756 641.781 318.922 636.755 318.922 631.343 318.922 627.507 317.705 625.253 315.279 623.001 312.852 621.797 309.849 621.637 306.27 Z" fill="#cccbcb" fill-opacity="1" stroke="none"/>
    </g>
    <g id="g128">
     <path id="path130" d="M370.661 31.861 L370.661 1.706 C370.661 0.877 371.333 0.203 372.162 0.203 L452.21 0.203 C453.039 0.203 453.711 0.877 453.711 1.706 L453.711 31.861 C453.711 32.691 453.039 33.363 452.21 33.363 L372.162 33.363 C371.333 33.363 370.661 32.691 370.661 31.861" fill="#cccbcb" fill-opacity="1" stroke="none"/>
    </g>
    <g id="g132">
     <path id="path134" d="M330.055 172.114 C330.055 186.722 318.597 197.591 303.604 198.565 292.693 199.273 277.053 199.025 269.392 198.565 255.184 197.713 242.943 186.722 242.943 172.114 L242.943 60.237 C242.943 45.629 254.683 34.693 269.392 33.786 276.747 33.334 297.155 33.126 303.604 33.786 317.959 35.255 330.055 45.629 330.055 60.237 Z M310.269 0.831 C310.269 0.831 284.175 0.263 273.595 0.263 263.015 0.263 209.783 -0.273 209.783 51.702 L209.783 163.609 C209.783 189.689 215.748 231.467 259.673 231.467 L292.832 231.467 C323.86 231.467 363.215 227.042 363.215 180.53 L363.215 51.702 C363.215 7.877 324.431 0.831 310.269 0.831" fill="#cccbcb" fill-opacity="1" stroke="none"/>
    </g>
    <g id="g136">
     <path id="path138" d="M80.415 231.142 C80.078 231.142 79.858 231.017 79.609 230.141 79.359 229.263 81.418 229.837 81.418 229.837 Z" fill="#cccbcb" fill-opacity="1" stroke="none"/>
    </g>
   </g>
  </g>
 </g>
</svg>
