<?xml version="1.0" encoding="UTF-8" standalone="no"?>
<svg
   xmlns:dc="http://purl.org/dc/elements/1.1/"
   xmlns:cc="http://creativecommons.org/ns#"
   xmlns:rdf="http://www.w3.org/1999/02/22-rdf-syntax-ns#"
   xmlns:svg="http://www.w3.org/2000/svg"
   xmlns="http://www.w3.org/2000/svg"
   viewBox="0 0 2000 2000"
   height="2000"
   width="2000"
   xml:space="preserve"
   id="svg2"
   version="1.1"><metadata
     id="metadata8"><rdf:RDF><cc:Work
         rdf:about=""><dc:format>image/svg+xml</dc:format><dc:type
           rdf:resource="http://purl.org/dc/dcmitype/StillImage" /></cc:Work></rdf:RDF></metadata><defs
     id="defs6"><clipPath
       id="clipPath18"
       clipPathUnits="userSpaceOnUse"><path
         id="path16"
         d="M 0,1500 H 1500 V 0 H 0 Z" /></clipPath></defs><g
     transform="matrix(1.3333333,0,0,-1.3333333,0,2000)"
     id="g10"><g
       id="g12"><g
         clip-path="url(#clipPath18)"
         id="g14"><g
           transform="translate(438.394,890.5737)"
           id="g20"><path
             id="path22"
             style="fill:#000000;fill-opacity:1;fill-rule:nonzero;stroke:none"
             d="m 0,0 v 22.578 c 0,0.632 0.513,1.146 1.146,1.146 h 59.996 c 0.633,0 1.146,-0.514 1.146,-1.146 L 62.288,0 c 0,-0.633 -0.513,-1.146 -1.146,-1.146 H 1.146 C 0.513,-1.146 0,-0.633 0,0" /></g><g
           transform="translate(454.8135,895.3262)"
           id="g24"><path
             id="path26"
             style="fill:#000000;fill-opacity:1;fill-rule:nonzero;stroke:none"
             d="m 0,0 23.923,6.794 43.682,-153.817 -23.923,-6.794 z" /></g><path
           id="path28"
           style="fill:#000000;fill-opacity:1;fill-rule:nonzero;stroke:none"
           d="m 499.062,765.763 h 31.524 v -24.87 h -31.524 z" /><g
           transform="translate(574.7222,896.3442)"
           id="g30"><path
             id="path32"
             style="fill:#000000;fill-opacity:1;fill-rule:nonzero;stroke:none"
             d="m 0,0 -23.924,6.794 -44.142,-155.44 23.923,-6.794 z" /></g><g
           transform="translate(528.978,890.564)"
           id="g34"><path
             id="path36"
             style="fill:#000000;fill-opacity:1;fill-rule:nonzero;stroke:none"
             d="m 0,0 v 22.597 c 0,0.628 0.508,1.136 1.136,1.136 h 60.016 c 0.627,0 1.136,-0.508 1.136,-1.136 L 62.288,0 c 0,-0.627 -0.509,-1.136 -1.136,-1.136 H 1.136 C 0.508,-1.136 0,-0.627 0,0" /></g><path
           id="path38"
           style="fill:#000000;fill-opacity:1;fill-rule:nonzero;stroke:none"
           d="m 734.922,914.097 h 24.87 V 746.086 h -24.87 z" /><g
           transform="translate(734.9224,741.8301)"
           id="g40"><path
             id="path42"
             style="fill:#000000;fill-opacity:1;fill-rule:nonzero;stroke:none"
             d="m 0,0 v 22.597 c 0,0.628 0.509,1.136 1.136,1.136 h 103.346 c 0.628,0 1.137,-0.508 1.137,-1.136 V 0 c 0,-0.628 -0.509,-1.137 -1.137,-1.137 H 1.136 C 0.509,-1.137 0,-0.628 0,0" /></g><g
           transform="translate(816.8018,783.4878)"
           id="g44"><path
             id="path46"
             style="fill:#000000;fill-opacity:1;fill-rule:nonzero;stroke:none"
             d="m 0,0 h 22.608 c 0.625,0 1.131,-0.506 1.131,-1.13 v -40.534 c 0,-0.624 -0.506,-1.13 -1.131,-1.13 H 0 c -0.624,0 -1.131,0.506 -1.131,1.13 V -1.13 C -1.131,-0.506 -0.624,0 0,0" /></g><g
           transform="translate(790.9531,806.103)"
           id="g48"><path
             id="path50"
             style="fill:#000000;fill-opacity:1;fill-rule:nonzero;stroke:none"
             d="m 0,0 v 21.335 c 0,0.628 0.51,1.138 1.138,1.138 H 48.45 c 0.628,0 1.138,-0.51 1.138,-1.138 L 49.588,0 c 0,-0.628 -0.51,-1.138 -1.138,-1.138 H 1.138 C 0.51,-1.138 0,-0.628 0,0" /></g><g
           transform="translate(804.373,914.0972)"
           id="g52"><path
             id="path54"
             style="fill:#000000;fill-opacity:1;fill-rule:nonzero;stroke:none"
             d="m 0,0 h 22.597 c 0.628,0 1.136,-0.509 1.136,-1.136 V -98 c 0,-0.627 -0.508,-1.136 -1.136,-1.136 H 0 c -0.628,0 -1.137,0.509 -1.137,1.136 V -1.136 C -1.137,-0.509 -0.628,0 0,0" /></g><g
           transform="translate(945.3125,912.9678)"
           id="g56"><path
             id="path58"
             style="fill:#000000;fill-opacity:1;fill-rule:nonzero;stroke:none"
             d="m 0,0 v -22.611 c 0,-0.623 -0.506,-1.129 -1.129,-1.129 H -51.68 c -0.624,0 -1.13,0.506 -1.13,1.129 V 0 c 0,0.624 0.506,1.129 1.13,1.129 H -1.129 C -0.506,1.129 0,0.624 0,0" /></g><path
           id="path60"
           style="fill:#000000;fill-opacity:1;fill-rule:nonzero;stroke:none"
           d="m 931.343,802.526 h -24.869 v 99.137 h 24.869 z" /><g
           transform="translate(1092.9619,764.2236)"
           id="g62"><path
             id="path64"
             style="fill:#000000;fill-opacity:1;fill-rule:nonzero;stroke:none"
             d="m 0,0 v -22.591 c 0,-0.629 -0.51,-1.138 -1.14,-1.138 h -60.008 c -0.629,0 -1.14,0.509 -1.14,1.138 V 0 c 0,0.629 0.511,1.14 1.14,1.14 H -1.14 C -0.51,1.14 0,0.629 0,0" /></g><g
           transform="translate(1076.543,759.4648)"
           id="g66"><path
             id="path68"
             style="fill:#000000;fill-opacity:1;fill-rule:nonzero;stroke:none"
             d="m 0,0 -23.924,-6.794 -43.911,154.626 23.924,6.793 z" /></g><g
           transform="translate(957.0176,758.1787)"
           id="g70"><path
             id="path72"
             style="fill:#000000;fill-opacity:1;fill-rule:nonzero;stroke:none"
             d="M 0,0 23.923,-6.794 68.191,149.09 44.268,155.884 Z" /></g><g
           transform="translate(1004.1152,764.2305)"
           id="g74"><path
             id="path76"
             style="fill:#000000;fill-opacity:1;fill-rule:nonzero;stroke:none"
             d="m 0,0 v -22.604 c 0,-0.625 -0.507,-1.132 -1.133,-1.132 h -60.022 c -0.625,0 -1.133,0.507 -1.133,1.132 V 0 c 0,0.625 0.508,1.133 1.133,1.133 H -1.133 C -0.507,1.133 0,0.625 0,0" /></g><path
           id="path78"
           style="fill:#000000;fill-opacity:1;fill-rule:nonzero;stroke:none"
           d="m 991.059,828.576 h 56.25 v -23.61 h -56.25 z" /><path
           id="path80"
           style="fill:#000000;fill-opacity:1;fill-rule:nonzero;stroke:none"
           d="m 1001.301,914.097 h 31.327 v -24.87 h -31.327 z" /><g
           transform="translate(823.5068,914.0972)"
           id="g82"><path
             id="path84"
             style="fill:#000000;fill-opacity:1;fill-rule:nonzero;stroke:none"
             d="m 0,0 h 27.903 c 6.076,0 23.937,-3.086 25.522,-24.87 1.616,-22.222 5.87,-100.315 6.35,-111.268 0.671,-15.287 9.241,-13.33 23.192,-13.904 v 2.876 l -0.088,35.595 h 24.869 v -59.021 c 0,-1.553 -1.259,-2.812 -2.811,-2.812 H 62.392 c 0,0 -25.071,-3.095 -26.719,24.67 -1.566,26.379 -2.994,48.175 -3.562,62.525 -0.472,11.926 -2.155,37.542 -2.565,44.112 -0.411,6.569 0.231,18.647 -12.745,18.647 -10.937,0 -18.869,0.24 -18.869,0.24 z" /></g><g
           transform="translate(859.1797,765.3633)"
           id="g86"><path
             id="path88"
             style="fill:#000000;fill-opacity:1;fill-rule:nonzero;stroke:none"
             d="m 0,0 c 2.053,-21.744 22.582,-24.869 25.045,-24.869 2.464,0 22.386,0.111 22.386,0.111 l -0.137,23.45 H 36.096 c -14.248,0 -12.033,15.474 -12.443,22.043 -0.41,6.57 -2.774,51.459 -2.95,53.423 L -3.285,59.467 C -2.251,39.607 -1.271,13.459 0,0" /></g><g
           transform="translate(621.6782,680.166)"
           id="g90"><path
             id="path92"
             style="fill:#000000;fill-opacity:1;fill-rule:nonzero;stroke:none"
             d="m 0,0 c 0.954,-0.754 2.087,-1.13 3.396,-1.13 1.594,0 3.137,0.368 4.63,1.106 2.517,1.222 3.775,3.224 3.775,6.004 V 9.624 C 11.248,9.271 10.538,8.976 9.666,8.74 8.796,8.504 7.942,8.336 7.104,8.236 L 4.367,7.884 C 2.728,7.666 1.493,7.323 0.666,6.854 -0.736,6.067 -1.436,4.812 -1.436,3.089 -1.436,1.782 -0.959,0.753 0,0 m 9.536,12.236 c 1.041,0.135 1.738,0.57 2.09,1.307 0.199,0.405 0.3,0.985 0.3,1.743 0,1.55 -0.547,2.674 -1.644,3.372 -1.098,0.699 -2.665,1.049 -4.71,1.049 -2.361,0 -4.033,-0.641 -5.021,-1.922 -0.553,-0.708 -0.913,-1.763 -1.081,-3.161 h -4.228 c 0.084,3.331 1.16,5.648 3.231,6.952 2.069,1.305 4.47,1.956 7.2,1.956 3.168,0 5.74,-0.603 7.717,-1.811 1.961,-1.208 2.941,-3.087 2.941,-5.638 V 0.555 c 0,-0.47 0.096,-0.847 0.29,-1.132 0.191,-0.284 0.599,-0.427 1.22,-0.427 0.201,0 0.427,0.012 0.68,0.038 0.25,0.025 0.518,0.063 0.806,0.113 V -4.2 c -0.705,-0.201 -1.244,-0.327 -1.611,-0.377 -0.371,-0.051 -0.875,-0.076 -1.509,-0.076 -1.563,0 -2.694,0.553 -3.399,1.661 -0.369,0.588 -0.628,1.418 -0.782,2.49 C 11.104,-1.71 9.778,-2.757 8.053,-3.646 6.322,-4.535 4.419,-4.98 2.339,-4.98 c -2.5,0 -4.542,0.758 -6.128,2.275 -1.585,1.516 -2.378,3.414 -2.378,5.693 0,2.496 0.779,4.431 2.342,5.806 1.557,1.373 3.604,2.219 6.14,2.538 z" /></g><g
           transform="translate(656.1235,703.0439)"
           id="g94"><path
             id="path96"
             style="fill:#000000;fill-opacity:1;fill-rule:nonzero;stroke:none"
             d="m 0,0 h 4.304 v -4.655 c 0.353,0.905 1.216,2.008 2.593,3.309 1.374,1.299 2.96,1.95 4.756,1.95 0.084,0 0.225,-0.008 0.426,-0.025 0.202,-0.017 0.547,-0.051 1.033,-0.1 v -4.782 c -0.268,0.05 -0.515,0.083 -0.743,0.101 -0.225,0.016 -0.474,0.024 -0.74,0.024 -2.284,0 -4.036,-0.734 -5.261,-2.201 C 5.143,-7.848 4.53,-9.537 4.53,-11.45 V -26.952 H 0 Z" /></g><g
           transform="translate(701.5337,701.6094)"
           id="g98"><path
             id="path100"
             style="fill:#000000;fill-opacity:1;fill-rule:nonzero;stroke:none"
             d="m 0,0 c 1.903,-1.477 3.049,-4.018 3.435,-7.625 h -4.406 c -0.268,1.661 -0.879,3.04 -1.836,4.141 -0.956,1.097 -2.492,1.647 -4.606,1.647 -2.885,0 -4.949,-1.408 -6.188,-4.223 -0.806,-1.826 -1.208,-4.081 -1.208,-6.761 0,-2.698 0.568,-4.968 1.711,-6.812 1.139,-1.843 2.933,-2.763 5.383,-2.763 1.879,0 3.37,0.571 4.467,1.716 1.101,1.145 1.858,2.711 2.277,4.701 h 4.406 c -0.504,-3.575 -1.762,-6.188 -3.775,-7.839 -2.014,-1.654 -4.59,-2.481 -7.725,-2.481 -3.523,0 -6.334,1.288 -8.432,3.863 -2.097,2.576 -3.144,5.793 -3.144,9.652 0,4.731 1.148,8.414 3.447,11.048 2.298,2.633 5.224,3.951 8.781,3.951 C -4.376,2.215 -1.905,1.477 0,0" /></g><g
           transform="translate(720.0625,713.1855)"
           id="g102"><path
             id="path104"
             style="fill:#000000;fill-opacity:1;fill-rule:nonzero;stroke:none"
             d="m 0,0 h 4.53 v -13.79 c 1.074,1.358 2.037,2.314 2.895,2.868 1.457,0.956 3.279,1.435 5.46,1.435 3.909,0 6.559,-1.367 7.952,-4.102 0.755,-1.493 1.131,-3.565 1.131,-6.216 v -17.289 h -4.654 v 16.987 c 0,1.98 -0.252,3.431 -0.755,4.354 -0.822,1.476 -2.366,2.214 -4.63,2.214 -1.88,0 -3.584,-0.646 -5.108,-1.938 C 5.292,-16.769 4.53,-19.209 4.53,-22.8 V -37.094 H 0 Z" /></g><path
           id="path106"
           style="fill:#000000;fill-opacity:1;fill-rule:nonzero;stroke:none"
           d="m 759.289,702.918 h 4.606 v -26.826 h -4.606 z m 0,10.142 h 4.606 v -5.134 h -4.606 z" /><g
           transform="translate(782.2139,710.5684)"
           id="g108"><path
             id="path110"
             style="fill:#000000;fill-opacity:1;fill-rule:nonzero;stroke:none"
             d="m 0,0 h 4.58 v -7.524 h 4.302 v -3.7 H 4.58 v -17.59 c 0,-0.94 0.318,-1.569 0.956,-1.887 0.353,-0.185 0.94,-0.278 1.762,-0.278 0.218,0 0.453,0.006 0.705,0.017 0.251,0.011 0.544,0.04 0.879,0.084 v -3.599 c -0.52,-0.15 -1.059,-0.259 -1.622,-0.327 -0.561,-0.067 -1.17,-0.1 -1.824,-0.1 -2.114,0 -3.547,0.54 -4.305,1.624 C 0.379,-32.199 0,-30.794 0,-29.065 v 17.841 h -3.647 v 3.7 H 0 Z" /></g><g
           transform="translate(824.4609,691.7197)"
           id="g112"><path
             id="path114"
             style="fill:#000000;fill-opacity:1;fill-rule:nonzero;stroke:none"
             d="m 0,0 c -0.183,1.963 -0.606,3.531 -1.273,4.706 -1.232,2.181 -3.286,3.272 -6.164,3.272 -2.062,0 -3.792,-0.752 -5.189,-2.253 C -14.023,4.223 -14.764,2.315 -14.848,0 Z M -1.623,10.582 C 0.16,9.684 1.52,8.522 2.454,7.097 c 0.9,-1.36 1.5,-2.945 1.8,-4.757 0.268,-1.241 0.402,-3.221 0.402,-5.939 h -19.604 c 0.083,-2.742 0.723,-4.942 1.922,-6.599 1.198,-1.657 3.055,-2.486 5.567,-2.486 2.349,0 4.221,0.785 5.62,2.352 0.781,0.909 1.335,1.963 1.663,3.16 h 4.453 c -0.117,-0.99 -0.507,-2.094 -1.169,-3.31 -0.664,-1.216 -1.402,-2.209 -2.219,-2.982 -1.364,-1.342 -3.054,-2.248 -5.07,-2.718 -1.083,-0.268 -2.305,-0.402 -3.671,-0.402 -3.334,0 -6.16,1.22 -8.477,3.662 -2.317,2.44 -3.476,5.859 -3.476,10.254 0,4.329 1.165,7.844 3.499,10.545 2.335,2.701 5.386,4.052 9.157,4.052 1.9,0 3.743,-0.45 5.526,-1.347" /></g><g
           transform="translate(863.2246,701.6094)"
           id="g116"><path
             id="path118"
             style="fill:#000000;fill-opacity:1;fill-rule:nonzero;stroke:none"
             d="m 0,0 c 1.903,-1.477 3.049,-4.018 3.435,-7.625 h -4.406 c -0.268,1.661 -0.88,3.04 -1.836,4.141 -0.956,1.097 -2.492,1.647 -4.606,1.647 -2.886,0 -4.949,-1.408 -6.189,-4.223 -0.804,-1.826 -1.208,-4.081 -1.208,-6.761 0,-2.698 0.569,-4.968 1.712,-6.812 1.139,-1.843 2.934,-2.763 5.383,-2.763 1.879,0 3.37,0.571 4.468,1.716 1.1,1.145 1.857,2.711 2.276,4.701 h 4.406 c -0.503,-3.575 -1.762,-6.188 -3.775,-7.839 -2.014,-1.654 -4.59,-2.481 -7.724,-2.481 -3.524,0 -6.335,1.288 -8.432,3.863 -2.098,2.576 -3.145,5.793 -3.145,9.652 0,4.731 1.148,8.414 3.447,11.048 2.298,2.633 5.224,3.951 8.781,3.951 C -4.376,2.215 -1.905,1.477 0,0" /></g><g
           transform="translate(882.6621,710.5684)"
           id="g120"><path
             id="path122"
             style="fill:#000000;fill-opacity:1;fill-rule:nonzero;stroke:none"
             d="m 0,0 h 4.58 v -7.524 h 4.302 v -3.7 H 4.58 v -17.59 c 0,-0.94 0.318,-1.569 0.956,-1.887 0.353,-0.185 0.94,-0.278 1.762,-0.278 0.218,0 0.453,0.006 0.704,0.017 0.252,0.011 0.545,0.04 0.88,0.084 v -3.599 c -0.52,-0.15 -1.06,-0.259 -1.622,-0.327 -0.562,-0.067 -1.17,-0.1 -1.824,-0.1 -2.115,0 -3.547,0.54 -4.305,1.624 C 0.379,-32.199 0,-30.794 0,-29.065 v 17.841 h -3.647 v 3.7 H 0 Z" /></g><g
           transform="translate(909.332,684.5479)"
           id="g124"><path
             id="path126"
             style="fill:#000000;fill-opacity:1;fill-rule:nonzero;stroke:none"
             d="m 0,0 c 0.137,-1.511 0.521,-2.668 1.155,-3.474 1.163,-1.459 3.186,-2.188 6.062,-2.188 1.711,0 3.219,0.365 4.52,1.094 1.301,0.73 1.953,1.858 1.953,3.384 0,1.159 -0.522,2.039 -1.562,2.643 C 11.464,1.828 10.15,2.256 8.189,2.742 L 4.532,3.648 C 2.198,4.219 0.475,4.856 -0.633,5.562 -2.609,6.786 -3.6,8.48 -3.6,10.645 c 0,2.549 0.93,4.613 2.792,6.19 1.863,1.577 4.365,2.366 7.512,2.366 4.115,0 7.082,-1.191 8.899,-3.574 1.141,-1.51 1.692,-3.137 1.659,-4.882 H 12.985 C 12.899,11.763 12.53,12.689 11.876,13.523 10.812,14.708 8.967,15.3 6.337,15.3 4.585,15.3 3.26,14.975 2.358,14.322 1.458,13.671 1.007,12.809 1.007,11.74 1.007,10.569 1.599,9.633 2.783,8.931 3.466,8.513 4.475,8.145 5.808,7.826 l 3.05,-0.729 c 3.318,-0.789 5.539,-1.553 6.668,-2.29 1.762,-1.159 2.641,-2.979 2.641,-5.461 0,-2.4 -0.92,-4.472 -2.763,-6.216 -1.843,-1.745 -4.65,-2.619 -8.42,-2.619 -4.059,0 -6.936,0.912 -8.626,2.732 -1.689,1.82 -2.592,4.072 -2.712,6.757 z" /></g><g
           transform="translate(716.7456,890.3545)"
           id="g128"><path
             id="path130"
             style="fill:#000000;fill-opacity:1;fill-rule:nonzero;stroke:none"
             d="m 0,0 v 22.616 c 0,0.622 0.504,1.127 1.126,1.127 h 60.036 c 0.622,0 1.126,-0.505 1.126,-1.127 V 0 c 0,-0.623 -0.504,-1.127 -1.126,-1.127 H 1.126 C 0.504,-1.127 0,-0.623 0,0" /></g><g
           transform="translate(686.291,785.1646)"
           id="g132"><path
             id="path134"
             style="fill:#000000;fill-opacity:1;fill-rule:nonzero;stroke:none"
             d="m 0,0 c 0,-10.956 -8.593,-19.108 -19.838,-19.838 -8.183,-0.531 -19.913,-0.345 -25.659,0 -10.656,0.639 -19.837,8.882 -19.837,19.838 v 83.908 c 0,10.956 8.805,19.158 19.837,19.838 5.516,0.339 20.822,0.495 25.659,0 C -9.072,102.644 0,94.864 0,83.908 Z m -14.839,128.462 c 0,0 -19.571,0.426 -27.506,0.426 -7.935,0 -47.859,0.402 -47.859,-38.579 V 6.379 c 0,-19.56 4.474,-50.894 37.418,-50.894 h 24.869 c 23.271,0 52.787,3.319 52.787,38.203 v 96.621 c 0,32.869 -29.088,38.153 -39.709,38.153" /></g><g
           transform="translate(499.0615,740.8936)"
           id="g136"><path
             id="path138"
             style="fill:#000000;fill-opacity:1;fill-rule:nonzero;stroke:none"
             d="M 0,0 C -0.253,0 -0.418,0.094 -0.605,0.751 -0.792,1.409 0.752,0.979 0.752,0.979 Z" /></g></g></g></g></svg>