<?xml version="1.0" encoding="UTF-8"?>
<svg width="555px" height="554px" viewBox="0 0 555 554" xmlns="http://www.w3.org/2000/svg" xmlns:xlink="http://www.w3.org/1999/xlink" version="1.1">
 <!-- Generated by Pixelmator Pro 2.1.2 -->
 <path id="Путь" d="M392.273 235.371 C397.129 240.223 397.129 248.094 392.273 252.953 387.422 257.809 379.547 257.809 374.691 252.953 L280.527 158.789 280.527 408.98 C280.527 415.867 274.941 421.453 268.055 421.453 261.164 421.453 255.582 415.867 255.582 408.98 L255.582 158.914 161.418 253.078 C159.09 255.414 155.922 256.727 152.625 256.727 149.324 256.727 146.164 255.414 143.832 253.078 141.477 250.742 140.172 247.543 140.215 244.223 140.231 240.914 141.527 237.738 143.832 235.371 L259.195 120.004 C261.547 117.656 264.738 116.348 268.055 116.383 271.363 116.406 274.527 117.703 276.906 120.004 Z M392.273 235.371" fill="#ffffff" fill-opacity="1" stroke="none"/>
 <path id="Путь-1" d="M268.156 -0.074 C159.699 -0.094 61.914 65.234 20.41 165.438 -21.086 265.645 1.867 380.98 78.582 457.648 183.285 562.352 353.035 562.352 457.734 457.648 562.434 352.953 562.434 183.203 457.734 78.5 407.566 28.047 339.305 -0.246 268.156 -0.074 Z M268.156 511.281 C134.082 511.281 24.953 402.148 24.953 268.074 24.953 134 134.082 24.871 268.156 24.871 402.23 24.871 511.363 134 511.363 268.074 511.363 402.148 402.23 511.281 268.156 511.281 Z M268.156 511.281" fill="#ffffff" fill-opacity="1" stroke="none"/>
</svg>
